<?xml version="1.0" encoding="UTF-8"?>
<!DOCTYPE svg PUBLIC "-//W3C//DTD SVG 1.1//EN" "http://www.w3.org/Graphics/SVG/1.1/DTD/svg11.dtd">
<svg version="1.1" xmlns="http://www.w3.org/2000/svg" xmlns:xlink="http://www.w3.org/1999/xlink" x="0" y="0" width="32" height="32" viewBox="0, 0, 32, 32">
  <g id="Background">
    <rect x="0" y="0" width="32" height="32" fill="#000000" fill-opacity="0"/>
  </g>
  <g id="Layer_1">
    <path d="M32,26.507 L31.973,26.507 L32,26.595 C32,28.291 24.831,30 16,30 C7.171,30 0,28.291 0,26.595 L0.03,26.507 L0,26.507 L0,21.157 L0.93,21.157 C3.13,22.352 9.032,22.514 16,22.514 C22.968,22.514 28.875,22.352 31.072,21.157 L32,21.157 L32,26.507 z M16,20.362 C7.171,20.362 0,19.448 0,17.754 L0.03,17.666 L0,17.666 L0,12.316 L0.93,12.316 C3.13,13.511 9.032,14.468 16,14.468 C22.968,14.468 28.875,13.511 31.072,12.316 L32,12.316 L32,17.666 L31.973,17.666 L32,17.754 C32,19.448 24.831,20.362 16,20.362 z M16,12.198 C7.171,12.198 0,10.607 0,8.911 L0.03,8.809 L0,8.809 L0,5.509 L0.043,5.509 L0,5.405 C0,3.709 7.171,2 16,2 C24.831,2 32,3.709 32,5.405 L31.957,5.509 L32,5.509 L32,8.809 L31.973,8.809 L32,8.911 C32,10.607 24.831,12.198 16,12.198" fill="#AEB9C0"/>
  </g>
</svg>
