<?xml version="1.0" encoding="UTF-8"?>
<!DOCTYPE svg PUBLIC "-//W3C//DTD SVG 1.1//EN" "http://www.w3.org/Graphics/SVG/1.1/DTD/svg11.dtd">
<svg version="1.1" xmlns="http://www.w3.org/2000/svg" xmlns:xlink="http://www.w3.org/1999/xlink" x="0" y="0" width="32" height="32" viewBox="0, 0, 32, 32">
  <g id="Background">
    <rect x="0" y="0" width="32" height="32" fill="#000000" fill-opacity="0"/>
  </g>
  <g id="Layer_1">
    <path d="M30,26.507 L29.976,26.507 L30,26.595 C30,28.291 23.727,30 16,30 C8.275,30 2,28.291 2,26.595 L2.026,26.507 L2,26.507 L2,21.157 L2.814,21.157 C4.739,22.352 9.903,22.514 16,22.514 C22.097,22.514 27.266,22.352 29.188,21.157 L30,21.157 L30,26.507 z M16,20.362 C8.275,20.362 2,19.448 2,17.754 L2.026,17.666 L2,17.666 L2,12.316 L2.814,12.316 C4.739,13.511 9.903,14.468 16,14.468 C22.097,14.468 27.266,13.511 29.188,12.316 L30,12.316 L30,17.666 L29.976,17.666 L30,17.754 C30,19.448 23.727,20.362 16,20.362 z M16,12.198 C8.275,12.198 2,10.607 2,8.911 L2.026,8.809 L2,8.809 L2,5.509 L2.038,5.509 L2,5.405 C2,3.709 8.275,2 16,2 C23.727,2 30,3.709 30,5.405 L29.962,5.509 L30,5.509 L30,8.809 L29.976,8.809 L30,8.911 C30,10.607 23.727,12.198 16,12.198" fill="#89D3ED"/>
  </g>
</svg>
